<svg width="14" height="14" viewBox="0 0 14 14" fill="none" xmlns="http://www.w3.org/2000/svg">
<path fill-rule="evenodd" clip-rule="evenodd" d="M7 0C10.8634 0 14 3.13658 14 7C14 10.8634 10.8634 14 7 14C3.13658 14 0 10.8634 0 7C0 3.13658 3.13658 0 7 0ZM7 0.583333C10.5414 0.583333 13.4167 3.45858 13.4167 7C13.4167 10.5414 10.5414 13.4167 7 13.4167C3.45858 13.4167 0.583333 10.5414 0.583333 7C0.583333 3.45858 3.45858 0.583333 7 0.583333ZM7 7H10.5V7.58333H6.41667V2.33333H7V7Z" fill="#FFAD00"/>
</svg>
