<svg width="15" height="15" viewBox="0 0 15 15" fill="none" xmlns="http://www.w3.org/2000/svg">
<path d="M11.8548 9.2925C11.5477 8.97275 11.1773 8.80179 10.7847 8.80179C10.3953 8.80179 10.0218 8.96958 9.70203 9.28933L8.70162 10.2866C8.6193 10.2423 8.53699 10.2011 8.45785 10.1599C8.34388 10.103 8.23624 10.0491 8.14443 9.99215C7.20733 9.39697 6.35572 8.62134 5.53893 7.61776C5.1432 7.11756 4.87727 6.6965 4.68415 6.26911C4.94375 6.03167 5.18435 5.78473 5.41863 5.5473C5.50727 5.45865 5.59592 5.36684 5.68456 5.2782C6.34939 4.61337 6.34939 3.75226 5.68456 3.08743L4.82028 2.22315C4.72214 2.12501 4.62083 2.0237 4.52586 1.92239C4.33591 1.72611 4.13646 1.5235 3.93068 1.33354C3.62359 1.02962 3.25635 0.868164 2.87012 0.868164C2.48388 0.868164 2.11031 1.02962 1.79373 1.33354C1.79056 1.33671 1.79056 1.33671 1.78739 1.33988L0.711003 2.42576C0.305774 2.83099 0.074667 3.32487 0.0240133 3.89789C-0.0519671 4.82232 0.220296 5.68343 0.429243 6.24695C0.942111 7.63043 1.70825 8.9126 2.85112 10.2866C4.23776 11.9423 5.90617 13.2498 7.81201 14.1711C8.54016 14.5162 9.51208 14.9246 10.598 14.9942C10.6644 14.9974 10.7341 15.0005 10.7974 15.0005C11.5287 15.0005 12.1429 14.7378 12.6241 14.2154C12.6273 14.2091 12.6336 14.2059 12.6368 14.1996C12.8014 14.0001 12.9913 13.8197 13.1908 13.6266C13.3269 13.4968 13.4662 13.3606 13.6024 13.2182C13.9158 12.8921 14.0804 12.5122 14.0804 12.1228C14.0804 11.7302 13.9126 11.3535 13.5929 11.0369L11.8548 9.2925ZM12.9882 12.6261C12.985 12.6261 12.985 12.6293 12.9882 12.6261C12.8647 12.7591 12.7381 12.8794 12.6019 13.0124C12.3962 13.2087 12.1872 13.4144 11.9909 13.6455C11.6712 13.9875 11.2945 14.1489 10.8006 14.1489C10.7531 14.1489 10.7024 14.1489 10.6549 14.1458C9.71469 14.0856 8.84091 13.7184 8.18558 13.4049C6.39371 12.5375 4.82028 11.306 3.51278 9.74522C2.43323 8.44405 1.71141 7.24103 1.23337 5.94936C0.938945 5.16106 0.831306 4.54689 0.878794 3.96753C0.910452 3.59713 1.05292 3.29004 1.31568 3.02728L2.39524 1.94772C2.55036 1.80209 2.71499 1.72294 2.87645 1.72294C3.0759 1.72294 3.23735 1.84325 3.33866 1.94455C3.34183 1.94772 3.34499 1.95089 3.34816 1.95405C3.54128 2.13451 3.7249 2.32129 3.91801 2.52074C4.01615 2.62205 4.11746 2.72335 4.21877 2.82783L5.08305 3.69211C5.41863 4.02769 5.41863 4.33794 5.08305 4.67352C4.99124 4.76533 4.90259 4.85714 4.81078 4.94578C4.54485 5.21805 4.29158 5.47131 4.01615 5.71825C4.00982 5.72458 4.00349 5.72775 4.00033 5.73408C3.72806 6.00634 3.77872 6.27228 3.8357 6.45273C3.83887 6.46223 3.84203 6.47172 3.8452 6.48122C4.06997 7.02575 4.38656 7.53862 4.86777 8.14963L4.87093 8.15279C5.74471 9.22918 6.66597 10.0681 7.68221 10.7108C7.81201 10.7931 7.94498 10.8596 8.07161 10.9229C8.18558 10.9799 8.29322 11.0337 8.38503 11.0907C8.3977 11.097 8.41036 11.1065 8.42302 11.1129C8.53066 11.1667 8.63197 11.192 8.73644 11.192C8.99921 11.192 9.16383 11.0274 9.21765 10.9736L10.3004 9.89085C10.408 9.78321 10.579 9.65341 10.7784 9.65341C10.9747 9.65341 11.1362 9.77688 11.2343 9.88451C11.2375 9.88768 11.2375 9.88768 11.2406 9.89085L12.985 11.6352C13.3111 11.9581 13.3111 12.2906 12.9882 12.6261Z" fill="#FFAD00"/>
<path d="M8.10595 3.56805C8.9354 3.70735 9.68887 4.09992 10.2904 4.70143C10.8919 5.30294 11.2813 6.05641 11.4238 6.88587C11.4586 7.09481 11.639 7.24044 11.8448 7.24044C11.8701 7.24044 11.8923 7.23728 11.9176 7.23411C12.1519 7.19612 12.307 6.97451 12.269 6.74024C12.0981 5.73666 11.6232 4.82173 10.8982 4.09675C10.1733 3.37177 9.25832 2.89689 8.25474 2.72594C8.02047 2.68795 7.80203 2.84307 7.76087 3.07418C7.71971 3.30529 7.87167 3.53006 8.10595 3.56805Z" fill="#FFAD00"/>
<path d="M14.9829 6.61682C14.7012 4.96424 13.9224 3.46046 12.7257 2.26377C11.529 1.06708 10.0252 0.288277 8.37265 0.00651579C8.14154 -0.0346403 7.9231 0.123652 7.88194 0.35476C7.84395 0.589033 7.99908 0.807477 8.23335 0.848633C9.70864 1.09873 11.0541 1.79839 12.1242 2.86528C13.1942 3.93534 13.8907 5.28083 14.1408 6.75611C14.1757 6.96506 14.3561 7.11069 14.5619 7.11069C14.5872 7.11069 14.6094 7.10752 14.6347 7.10436C14.8658 7.06953 15.0241 6.84792 14.9829 6.61682Z" fill="#FFAD00"/>
</svg>
