<svg width="209" height="225" viewBox="0 0 209 225" fill="none" xmlns="http://www.w3.org/2000/svg">
<path d="M109.661 2.89098L109.66 2.89041C108.983 2.21195 108.179 1.67365 107.294 1.30636C106.408 0.939064 105.459 0.75 104.5 0.75C103.541 0.75 102.592 0.939065 101.706 1.30636C100.821 1.67365 100.017 2.21195 99.3397 2.89041L99.339 2.89108L2.87814 99.3128L109.661 2.89098ZM109.661 2.89098L152.2 45.4293L153.481 46.7096V44.899V24.12C153.481 22.1879 154.249 20.3349 155.615 18.9687C156.982 17.6024 158.836 16.8348 160.769 16.8348H176.846C178.779 16.8348 180.633 17.6024 182 18.9687C183.367 20.3349 184.135 22.1879 184.135 24.12V77.0398V77.3507L184.355 77.5704L206.122 99.3128C206.798 99.9906 207.334 100.795 207.699 101.68C208.065 102.565 208.252 103.513 208.25 104.471V104.472V216.965C208.25 218.897 207.482 220.75 206.115 222.116C204.749 223.482 202.895 224.25 200.962 224.25H128.615C126.682 224.25 124.828 223.482 123.462 222.116C122.095 220.75 121.327 218.897 121.327 216.965V152.683V151.933H120.577H88.4231H87.6731V152.683V216.965C87.6731 218.897 86.9053 220.75 85.5385 222.116C84.1716 223.482 82.3177 224.25 80.3846 224.25H8.03847C6.10535 224.25 4.25147 223.482 2.88465 222.116C1.51783 220.75 0.750013 218.897 0.750013 216.965L0.750014 104.472L0.750012 104.471M109.661 2.89098L0.750012 104.471M0.750012 104.471C0.748301 103.513 0.935365 102.565 1.30052 101.68C1.66555 100.795 2.2014 99.9912 2.87747 99.3135L0.750012 104.471ZM15.3269 208.93V209.68H16.0769H72.3462H73.0962V208.93V144.648C73.0962 142.716 73.864 140.863 75.2308 139.497C76.5976 138.13 78.4515 137.363 80.3846 137.363H128.615C130.549 137.363 132.402 138.13 133.769 139.497C135.136 140.863 135.904 142.716 135.904 144.648V208.93V209.68H136.654H192.923H193.673V208.93V107.799V107.488L193.453 107.268L105.03 18.8809L104.5 18.3509L103.97 18.8809L15.5467 107.268L15.3269 107.488V107.799V208.93Z" stroke="white" stroke-width="1.5"/>
</svg>
