<svg width="209" height="225" viewBox="0 0 209 225" fill="none" xmlns="http://www.w3.org/2000/svg">
<mask id="path-1-inside-1_75_3" fill="white">
<path d="M110.191 2.36064C109.445 1.61235 108.557 1.01867 107.581 0.613588C106.604 0.20851 105.557 0 104.5 0C103.443 0 102.396 0.20851 101.419 0.613588C100.443 1.01867 99.5555 1.61235 98.8088 2.36064L2.34724 98.7831C1.60125 99.5306 1.00997 100.418 0.607212 101.394C0.204458 102.37 -0.00187376 103.416 1.28213e-05 104.472V216.965C1.28213e-05 219.096 0.846919 221.14 2.35442 222.647C3.86193 224.153 5.90654 225 8.03847 225H80.3846C82.5166 225 84.5612 224.153 86.0687 222.647C87.5762 221.14 88.4231 219.096 88.4231 216.965V152.683H120.577V216.965C120.577 219.096 121.424 221.14 122.931 222.647C124.439 224.153 126.483 225 128.615 225H200.962C203.093 225 205.138 224.153 206.646 222.647C208.153 221.14 209 219.096 209 216.965V104.472C209.002 103.416 208.796 102.37 208.393 101.394C207.99 100.418 207.399 99.5306 206.653 98.7831L184.885 77.0398V24.12C184.885 21.9889 184.038 19.9451 182.53 18.4382C181.023 16.9313 178.978 16.0848 176.846 16.0848H160.769C158.637 16.0848 156.593 16.9313 155.085 18.4382C153.578 19.9451 152.731 21.9889 152.731 24.12V44.899L110.191 2.36064ZM16.0769 208.93V107.799L104.5 19.4113L192.923 107.799V208.93H136.654V144.648C136.654 142.517 135.807 140.473 134.299 138.966C132.792 137.459 130.747 136.613 128.615 136.613H80.3846C78.2527 136.613 76.2081 137.459 74.7006 138.966C73.1931 140.473 72.3462 142.517 72.3462 144.648V208.93H16.0769Z"/>
</mask>
<path d="M110.191 2.36064C109.445 1.61235 108.557 1.01867 107.581 0.613588C106.604 0.20851 105.557 0 104.5 0C103.443 0 102.396 0.20851 101.419 0.613588C100.443 1.01867 99.5555 1.61235 98.8088 2.36064L2.34724 98.7831C1.60125 99.5306 1.00997 100.418 0.607212 101.394C0.204458 102.37 -0.00187376 103.416 1.28213e-05 104.472V216.965C1.28213e-05 219.096 0.846919 221.14 2.35442 222.647C3.86193 224.153 5.90654 225 8.03847 225H80.3846C82.5166 225 84.5612 224.153 86.0687 222.647C87.5762 221.14 88.4231 219.096 88.4231 216.965V152.683H120.577V216.965C120.577 219.096 121.424 221.14 122.931 222.647C124.439 224.153 126.483 225 128.615 225H200.962C203.093 225 205.138 224.153 206.646 222.647C208.153 221.14 209 219.096 209 216.965V104.472C209.002 103.416 208.796 102.37 208.393 101.394C207.99 100.418 207.399 99.5306 206.653 98.7831L184.885 77.0398V24.12C184.885 21.9889 184.038 19.9451 182.53 18.4382C181.023 16.9313 178.978 16.0848 176.846 16.0848H160.769C158.637 16.0848 156.593 16.9313 155.085 18.4382C153.578 19.9451 152.731 21.9889 152.731 24.12V44.899L110.191 2.36064ZM16.0769 208.93V107.799L104.5 19.4113L192.923 107.799V208.93H136.654V144.648C136.654 142.517 135.807 140.473 134.299 138.966C132.792 137.459 130.747 136.613 128.615 136.613H80.3846C78.2527 136.613 76.2081 137.459 74.7006 138.966C73.1931 140.473 72.3462 142.517 72.3462 144.648V208.93H16.0769Z" stroke="white" stroke-width="3" mask="url(#path-1-inside-1_75_3)"/>
</svg>