<svg width="224" height="237" viewBox="0 0 224 237" fill="none" xmlns="http://www.w3.org/2000/svg">
<path d="M23.6589 208.956C23.8304 208.791 44.9928 188.854 44.9928 164.065C44.9928 146.98 35.2436 130.048 24.9228 112.118C13.192 91.7432 1.06747 70.6761 1.06747 46.0015C0.72024 39.4552 1.71591 32.9072 3.99325 26.76C6.27058 20.6128 9.78142 14.9966 14.3098 10.2566C15.2625 9.12606 16.247 7.98284 17.1997 6.71894C19.5158 3.66502 22.9502 1.65625 26.7474 1.13455C30.5446 0.612856 34.3936 1.62096 37.4475 3.93709C40.5014 6.25322 42.5102 9.68765 43.0319 13.4849C43.5536 17.2821 42.5455 21.131 40.2293 24.1849C38.9464 25.868 37.6444 27.424 36.3551 28.9356C34.0471 31.097 32.2697 33.7623 31.1614 36.7236C30.0531 39.6849 29.6439 42.8623 29.9657 46.0078C29.9657 62.9593 39.6831 79.8346 49.9722 97.7071C61.722 118.139 73.891 139.263 73.891 164.065C73.761 176.001 71.0118 187.763 65.8376 198.521" stroke="white" stroke-opacity="0.9" stroke-width="1.7" stroke-linecap="round" stroke-linejoin="round"/>
<path d="M42.8182 12.283C42.869 12.5116 49.6776 40.7747 71.2083 53.0771C86.0385 61.5497 105.569 61.4735 126.267 61.4226C149.748 61.3147 174.08 61.2639 195.496 73.5027C201.354 76.4481 206.547 80.5613 210.756 85.5891C214.964 90.6168 218.099 96.4527 219.968 102.738C220.476 104.129 220.984 105.545 221.606 106.993C222.373 108.742 222.785 110.625 222.819 112.535C222.854 114.444 222.509 116.341 221.806 118.116C221.102 119.892 220.054 121.51 218.721 122.878C217.388 124.245 215.798 125.335 214.041 126.084C212.285 126.834 210.397 127.227 208.488 127.242C206.578 127.258 204.685 126.894 202.916 126.173C201.148 125.452 199.54 124.388 198.186 123.041C196.832 121.695 195.758 120.094 195.026 118.33C194.194 116.38 193.502 114.481 192.816 112.614C192.084 109.538 190.652 106.672 188.63 104.24C186.608 101.809 184.052 99.8775 181.161 98.5966C166.452 90.1875 146.979 90.2383 126.356 90.3209C102.768 90.3653 78.4043 90.4733 56.8736 78.1709C46.3952 72.0274 37.4172 63.6265 30.592 53.5788" stroke="white" stroke-opacity="0.9" stroke-width="1.7" stroke-linecap="round" stroke-linejoin="round"/>
<path d="M203.294 126.866C203.066 126.797 175.203 118.495 153.767 130.944C138.988 139.518 129.239 156.451 118.911 174.38C107.181 194.742 95.0433 215.809 73.7031 228.188C65.9897 233.093 57.0812 235.795 47.9424 236C43.9792 235.927 40.0311 235.489 36.1481 234.692C34.6523 234.405 33.1485 234.162 31.6387 233.961C29.7272 233.764 27.8743 233.188 26.1882 232.266C24.5022 231.344 23.017 230.095 21.8195 228.593C20.622 227.09 19.7364 225.363 19.2143 223.514C18.6923 221.664 18.5444 219.73 18.7792 217.822C19.0141 215.915 19.627 214.074 20.5821 212.407C21.5372 210.739 22.8153 209.279 24.3416 208.112C25.868 206.944 27.6118 206.093 29.4711 205.608C31.3304 205.122 33.2679 205.013 35.17 205.285C37.2786 205.539 39.2729 205.895 41.2291 206.238C44.2566 207.15 47.4538 207.351 50.5715 206.824C53.6892 206.297 56.6432 205.058 59.2032 203.202C73.8619 194.692 83.5793 177.816 93.8747 159.95C105.644 139.531 117.806 118.407 139.261 105.952C150.093 99.8333 162.175 96.2584 174.593 95.4976" stroke="white" stroke-opacity="0.9" stroke-width="1.7" stroke-linecap="round" stroke-linejoin="round"/>
</svg>
