<svg width="211" height="225" viewBox="0 0 211 225" fill="none" xmlns="http://www.w3.org/2000/svg">
<path d="M155.437 196.873V196.123H154.687H140.625H139.875V196.873V217.967C139.875 219.633 139.213 221.23 138.035 222.408C136.857 223.586 135.259 224.248 133.594 224.248H7.03124C5.36535 224.248 3.76769 223.586 2.58973 222.408C1.41177 221.23 0.75 219.633 0.75 217.967V140.623C0.751064 139.306 1.16648 138.022 1.93747 136.953C2.70851 135.885 3.79612 135.085 5.04637 134.669L5.04654 134.669L84.612 108.147L85.1248 107.976V107.436V63.2795C85.1249 62.114 85.4492 60.9714 86.0616 59.9797C86.6739 58.988 87.5501 58.1862 88.5921 57.6641L201.091 1.41448L201.092 1.41433C202.05 0.934521 203.116 0.708024 204.187 0.7564C205.257 0.804777 206.298 1.12642 207.21 1.69071L207.21 1.6909C208.12 2.25363 208.871 3.03942 209.392 3.97379C209.913 4.90816 210.187 5.96012 210.187 7.02995V217.967C210.187 219.633 209.525 221.23 208.347 222.408C207.169 223.586 205.572 224.248 203.906 224.248H161.718C160.053 224.248 158.455 223.586 157.277 222.408C156.099 221.23 155.437 219.633 155.437 217.967V196.873ZM85.1248 122.258V121.217L84.1378 121.546L13.8254 144.974L13.3125 145.145V145.686V210.935V211.685H14.0625H84.3748H85.1248V210.935V122.258ZM97.6873 210.935V211.685H98.4373H126.562H127.312V210.935V189.842C127.312 188.176 127.974 186.578 129.152 185.4C130.33 184.222 131.928 183.561 133.594 183.561H161.718C163.384 183.561 164.982 184.222 166.16 185.4C167.338 186.578 168 188.176 168 189.842V210.935V211.685H168.75H196.875H197.625V210.935V18.4061V17.1926L196.539 17.7353L98.1019 66.954L97.6873 67.1613V67.6248V210.935Z" stroke="white" stroke-width="1.5"/>
<path d="M28.875 155.436H41.4375V167.998H28.875V155.436ZM57 155.436H69.5624V167.998H57V155.436ZM28.875 183.561H41.4375V196.123H28.875V183.561ZM57 183.561H69.5624V196.123H57V183.561ZM113.25 127.311H125.812V139.873H113.25V127.311ZM141.375 127.311H153.937V139.873H141.375V127.311ZM113.25 155.436H125.812V167.998H113.25V155.436ZM141.375 155.436H153.937V167.998H141.375V155.436ZM169.5 127.311H182.062V139.873H169.5V127.311ZM169.5 155.436H182.062V167.998H169.5V155.436ZM113.25 99.1857H125.812V111.748H113.25V99.1857ZM141.375 99.1857H153.937V111.748H141.375V99.1857ZM169.5 99.1857H182.062V111.748H169.5V99.1857ZM113.25 71.0607H125.812V83.6232H113.25V71.0607ZM141.375 71.0607H153.937V83.6232H141.375V71.0607ZM169.5 71.0607H182.062V83.6232H169.5V71.0607ZM169.5 42.9358H182.062V55.4983H169.5V42.9358Z" stroke="white" stroke-width="1.5"/>
</svg>
