<svg width="230" height="227" viewBox="0 0 230 227" fill="none" xmlns="http://www.w3.org/2000/svg">
<path d="M180.14 177.188V226M204.573 226H25.4268C18.9484 226 12.7354 223.429 8.15445 218.852C3.57353 214.275 1 208.067 1 201.594V114.813C0.999617 111.605 1.6324 108.428 2.86213 105.465C4.09186 102.501 5.8944 99.8094 8.1666 97.5428L97.7336 8.14489C102.313 3.57005 108.524 1 115 1C121.476 1 127.687 3.57005 132.266 8.14489L221.833 97.5428C224.106 99.8094 225.908 102.501 227.138 105.465C228.368 108.428 229 111.605 229 114.813V201.594C229 208.067 226.426 214.275 221.846 218.852C217.265 223.429 211.052 226 204.573 226V226ZM49.8598 177.188H180.134V124.929L115 59.912L49.8598 124.929V177.188ZM149.428 25.2733L1 173.802L149.428 25.2733ZM49.8598 177.188V226V177.188Z" stroke="white" stroke-opacity="0.9" stroke-width="1.7" stroke-linecap="round" stroke-linejoin="round"/>
</svg>
