<svg width="113" height="99" viewBox="0 0 113 99" fill="none" xmlns="http://www.w3.org/2000/svg">
<path d="M1 97.6324L39.1881 52.2329" stroke="#6B6B6B" stroke-opacity="0.15"/>
<path d="M111.539 98.2155L112 1" stroke="#6B6B6B" stroke-opacity="0.15"/>
<path d="M6.28516 97.6785L42.6547 49.7935" stroke="#6B6B6B" stroke-opacity="0.15"/>
<path d="M11.5714 97.7241L46.1225 47.3535" stroke="#6B6B6B" stroke-opacity="0.15"/>
<path d="M16.8574 97.7702L49.5901 44.9141" stroke="#6B6B6B" stroke-opacity="0.15"/>
<path d="M22.1426 97.8161L53.0567 42.4744" stroke="#6B6B6B" stroke-opacity="0.15"/>
<path d="M27.4287 97.8619L56.5244 40.0347" stroke="#6B6B6B" stroke-opacity="0.15"/>
<path d="M32.7139 97.9075L59.9911 37.5947" stroke="#6B6B6B" stroke-opacity="0.15"/>
<path d="M38 97.9536L63.4587 35.1553" stroke="#6B6B6B" stroke-opacity="0.15"/>
<path d="M43.2861 97.9995L66.9264 32.7156" stroke="#6B6B6B" stroke-opacity="0.15"/>
<path d="M48.5714 98.0454L70.3932 30.2759" stroke="#6B6B6B" stroke-opacity="0.15"/>
<path d="M53.8572 98.0915L73.8605 27.8364" stroke="#6B6B6B" stroke-opacity="0.15"/>
<path d="M59.1428 98.1371L77.3276 25.3965" stroke="#6B6B6B" stroke-opacity="0.15"/>
<path d="M64.4286 98.1832L80.7949 22.957" stroke="#6B6B6B" stroke-opacity="0.15"/>
<path d="M69.7139 98.2291L84.2617 20.5173" stroke="#6B6B6B" stroke-opacity="0.15"/>
<path d="M75 98.2749L87.7294 18.0776" stroke="#6B6B6B" stroke-opacity="0.15"/>
<path d="M80.2861 98.321L91.197 15.6382" stroke="#6B6B6B" stroke-opacity="0.15"/>
<path d="M85.5713 98.3666L94.6637 13.1982" stroke="#6B6B6B" stroke-opacity="0.15"/>
<path d="M90.8574 98.4125L98.1313 10.7585" stroke="#6B6B6B" stroke-opacity="0.15"/>
<path d="M96.1426 98.4584L101.598 8.31885" stroke="#6B6B6B" stroke-opacity="0.15"/>
<path d="M101.429 98.5045L105.066 5.87939" stroke="#6B6B6B" stroke-opacity="0.15"/>
<path d="M106.715 98.5503L108.533 3.4397" stroke="#6B6B6B" stroke-opacity="0.15"/>
</svg>
