<svg width="1398" height="833" viewBox="0 0 1398 833" fill="none" xmlns="http://www.w3.org/2000/svg">
<path d="M1397.24 802.756L1073.74 370.222M35.3758 833L0.763672 786.722L35.3758 833ZM1397.24 30.2439L1073.74 462.778L1397.24 30.2439ZM1397.24 756.478L1073.74 323.944L1397.24 756.478ZM1397.24 710.201L1073.74 277.667L1397.24 710.201ZM1397.24 663.923L1073.74 231.389L1397.24 663.923ZM1397.24 617.645L1073.74 185.111L1397.24 617.645ZM1397.24 571.367L1073.74 138.833L1397.24 571.367ZM1397.24 525.089L1073.74 92.5556L1397.24 525.089ZM1397.24 478.812L1073.74 46.2778L1397.24 478.812ZM1397.24 432.534L1073.74 0L1397.24 432.534ZM1397.24 154.867L1281.41 0L1397.24 154.867ZM1397.24 108.589L1316.02 0L1397.24 108.589ZM1397.24 62.3117L1350.64 0L1397.24 62.3117ZM1397.24 16.0339L1385.25 0L1397.24 16.0339ZM1397.24 539.299L1177.57 833L1397.24 539.299ZM1397.24 493.022L1142.96 833L1397.24 493.022ZM1397.24 446.744L1108.35 833L1397.24 446.744ZM1397.24 400.466L1073.74 833L1397.24 400.466ZM1397.24 585.577L1212.19 833L1397.24 585.577ZM1397.24 631.855L1246.8 833L1397.24 631.855ZM1397.24 724.411L1316.02 833L1397.24 724.411ZM1397.24 770.688L1350.64 833L1397.24 770.688ZM1397.24 816.966L1385.25 833L1397.24 816.966ZM1397.24 169.077L1073.74 601.611L1397.24 169.077ZM1397.24 122.799L1073.74 555.333L1397.24 122.799ZM1397.24 76.5217L1073.74 509.056L1397.24 76.5217ZM1397.24 339.978L1142.96 0L1397.24 339.978ZM1397.24 293.701L1177.57 0L1397.24 293.701ZM1397.24 247.423L1212.19 0L1397.24 247.423ZM1397.24 201.145L1246.8 0L1397.24 201.145ZM1397.24 354.188L1073.74 786.722L1397.24 354.188ZM1397.24 307.911L1073.74 740.444L1397.24 307.911ZM1397.24 261.633L1073.74 694.167L1397.24 261.633ZM1397.24 215.355L1073.74 647.889L1397.24 215.355ZM1397.24 386.256L1108.35 0L1397.24 386.256ZM1397.24 809.861H1073.74H1397.24ZM1397.24 786.722H1073.74H1397.24ZM1397.24 763.583H1073.74H1397.24ZM1397.24 740.444H1073.74H1397.24ZM1397.24 717.306H1073.74H1397.24ZM1397.24 694.167H1073.74H1397.24ZM1397.24 671.028H1073.74H1397.24ZM1397.24 647.889H1073.74H1397.24ZM1397.24 624.75H1073.74H1397.24ZM1397.24 601.611H1073.74H1397.24ZM1397.24 578.472H1073.74H1397.24ZM1397.24 555.333H1073.74H1397.24ZM1397.24 532.194H1073.74H1397.24ZM1397.24 509.056H1073.74H1397.24ZM1397.24 485.917H1073.74H1397.24ZM1397.24 462.778H1073.74H1397.24ZM1397.24 439.639H1073.74H1397.24ZM1397.24 416.5H1073.74H1397.24ZM1397.24 393.361H1073.74H1397.24ZM1397.24 370.222H1073.74H1397.24ZM1397.24 347.083H1073.74H1397.24ZM1397.24 323.944H1073.74H1397.24ZM1397.24 300.806H1073.74H1397.24ZM1397.24 277.667H1073.74H1397.24ZM1397.24 254.528H1073.74H1397.24ZM1397.24 231.389H1073.74H1397.24ZM1397.24 208.25H1073.74H1397.24ZM1397.24 185.111H1073.74H1397.24ZM1397.24 161.972H1073.74H1397.24ZM1397.24 138.833H1073.74H1397.24ZM1397.24 115.694H1073.74H1397.24ZM1397.24 92.5556H1073.74H1397.24ZM1397.24 69.4167H1073.74H1397.24ZM1397.24 46.2778H1073.74H1397.24ZM1397.24 23.1389H1073.74H1397.24ZM1397.24 678.133L1281.41 833L1397.24 678.133ZM1108.35 833L1073.74 786.722L1108.35 833ZM1142.96 833L1073.74 740.444L1142.96 833ZM1177.57 833L1073.74 694.167L1177.57 833ZM1212.19 833L1073.74 647.889L1212.19 833ZM1246.8 833L1073.74 601.611L1246.8 833ZM1281.41 833L1073.74 555.333L1281.41 833ZM1316.02 833L1073.74 509.056L1316.02 833ZM1350.64 833L1073.74 462.778L1350.64 833ZM1385.25 833L1073.74 416.5L1385.25 833ZM1142.96 0L1073.74 92.5556L1142.96 0ZM1385.25 0L1073.74 416.5L1385.25 0ZM1350.64 0L1073.74 370.222L1350.64 0ZM1316.02 0L1073.74 323.944L1316.02 0ZM1281.41 0L1073.74 277.667L1281.41 0ZM1246.8 0L1073.74 231.389L1246.8 0ZM1212.19 0L1073.74 185.111L1212.19 0ZM1177.57 0L1073.74 138.833L1177.57 0ZM1108.35 0L1073.74 46.2778L1108.35 0ZM1073.74 23.1389H0.763672H1073.74ZM1073.74 46.2778H0.763672H1073.74ZM1073.74 69.4167H0.763672H1073.74ZM1073.74 92.5556H0.763672H1073.74ZM1073.74 115.694H0.763672H1073.74ZM1073.74 138.833H0.763672H1073.74ZM1073.74 161.972H0.763672H1073.74ZM1073.74 185.111H0.763672H1073.74ZM1073.74 208.25H0.763672H1073.74ZM1073.74 231.389H0.763672H1073.74ZM1073.74 254.528H0.763672H1073.74ZM1073.74 277.667H0.763672H1073.74ZM1073.74 300.806H0.763672H1073.74ZM1073.74 323.944H0.763672H1073.74ZM1073.74 347.083H0.763672H1073.74ZM1073.74 370.222H0.763672H1073.74ZM1073.74 393.361H0.763672H1073.74ZM1073.74 416.5H0.763672H1073.74ZM1073.74 439.639H0.763672H1073.74ZM1073.74 462.778H0.763672H1073.74ZM1073.74 485.917H0.763672H1073.74ZM1073.74 509.056H0.763672H1073.74ZM1073.74 532.194H0.763672H1073.74ZM1073.74 555.333H0.763672H1073.74ZM1073.74 578.472H0.763672H1073.74ZM1073.74 601.611H0.763672H1073.74ZM1073.74 624.75H0.763672H1073.74ZM1073.74 647.889H0.763672H1073.74ZM1073.74 671.028H0.763672H1073.74ZM1073.74 694.167H0.763672H1073.74ZM1073.74 717.306H0.763672H1073.74ZM1073.74 740.444H0.763672H1073.74ZM1073.74 763.583H0.763672H1073.74ZM1073.74 786.722H0.763672H1073.74ZM1073.74 809.861H0.763672H1073.74ZM658.393 833L35.3758 0L658.393 833ZM1073.74 786.722L485.333 0L1073.74 786.722ZM1073.74 740.444L519.945 0L1073.74 740.444ZM1073.74 694.167L554.557 0L1073.74 694.167ZM1073.74 647.889L589.169 0L1073.74 647.889ZM1073.74 601.611L623.781 0L1073.74 601.611ZM1073.74 555.333L658.393 0L1073.74 555.333ZM1073.74 509.056L693.005 0L1073.74 509.056ZM1073.74 462.778L727.618 0L1073.74 462.778ZM1073.74 416.5L762.23 0L1073.74 416.5ZM1073.74 370.222L796.842 0L1073.74 370.222ZM1073.74 323.944L831.454 0L1073.74 323.944ZM1073.74 277.667L866.066 0L1073.74 277.667ZM1073.74 231.389L900.678 0L1073.74 231.389ZM1073.74 185.111L935.29 0L1073.74 185.111ZM1073.74 138.833L969.902 0L1073.74 138.833ZM1073.74 92.5556L1004.51 0L1073.74 92.5556ZM1073.74 46.2778L1039.13 0L1073.74 46.2778ZM1073.74 786.722L1039.13 833L1073.74 786.722ZM1073.74 740.444L1004.51 833L1073.74 740.444ZM1073.74 694.167L969.902 833L1073.74 694.167ZM1073.74 647.889L935.29 833L1073.74 647.889ZM1073.74 601.611L900.678 833L1073.74 601.611ZM485.333 0L0.763672 647.889L485.333 0ZM519.945 0L0.763672 694.167L519.945 0ZM554.557 0L0.763672 740.444L554.557 0ZM589.169 0L0.763672 786.722L589.169 0ZM796.842 833L173.824 0L796.842 833ZM762.23 833L139.212 0L762.23 833ZM727.618 833L104.6 0L727.618 833ZM693.005 833L69.9878 0L693.005 833ZM35.3758 0L0.763672 46.2778L35.3758 0ZM104.6 0L0.763672 138.833L104.6 0ZM139.212 0L0.763672 185.111L139.212 0ZM173.824 0L0.763672 231.389L173.824 0ZM208.436 0L0.763672 277.667L208.436 0ZM243.048 0L0.763672 323.944L243.048 0ZM277.66 0L0.763672 370.222L277.66 0ZM312.272 0L0.763672 416.5L312.272 0ZM346.885 0L0.763672 462.778L346.885 0ZM381.497 0L0.763672 509.056L381.497 0ZM416.109 0L0.763672 555.333L416.109 0ZM450.721 0L0.763672 601.611L450.721 0ZM69.9878 0L0.763672 92.5556L69.9878 0ZM1073.74 555.333L866.066 833L1073.74 555.333ZM1073.74 509.056L831.454 833L1073.74 509.056ZM1073.74 462.778L796.842 833L1073.74 462.778ZM1073.74 416.5L762.23 833L1073.74 416.5ZM1073.74 370.222L727.618 833L1073.74 370.222ZM1073.74 323.944L693.005 833L1073.74 323.944ZM1073.74 277.667L658.393 833L1073.74 277.667ZM1073.74 231.389L623.781 833L1073.74 231.389ZM1073.74 185.111L589.169 833L1073.74 185.111ZM1073.74 138.833L554.557 833L1073.74 138.833ZM1073.74 92.5556L519.945 833L1073.74 92.5556ZM1073.74 46.2778L485.333 833L1073.74 46.2778ZM1073.74 0L450.721 833L1073.74 0ZM1039.13 0L416.109 833L1039.13 0ZM1004.51 0L381.497 833L1004.51 0ZM969.902 0L346.885 833L969.902 0ZM935.29 0L312.272 833L935.29 0ZM900.678 0L277.66 833L900.678 0ZM866.066 0L243.048 833L866.066 0ZM831.454 0L208.436 833L831.454 0ZM796.842 0L173.824 833L796.842 0ZM762.23 0L139.212 833L762.23 0ZM623.781 0L0.763672 833L623.781 0ZM658.393 0L35.3758 833L658.393 0ZM693.005 0L69.9878 833L693.005 0ZM727.618 0L104.6 833L727.618 0ZM935.29 833L312.272 0L935.29 833ZM900.678 833L277.66 0L900.678 833ZM866.066 833L243.048 0L866.066 833ZM831.454 833L208.436 0L831.454 833ZM969.902 833L346.885 0L969.902 833ZM1004.51 833L381.497 0L1004.51 833ZM1039.13 833L416.109 0L1039.13 833ZM1073.74 833L450.721 0L1073.74 833ZM623.781 833L0.763672 0L623.781 833ZM589.169 833L0.763672 46.2778L589.169 833ZM554.557 833L0.763672 92.5556L554.557 833ZM519.945 833L0.763672 138.833L519.945 833ZM485.333 833L0.763672 185.111L485.333 833ZM450.721 833L0.763672 231.389L450.721 833ZM416.109 833L0.763672 277.667L416.109 833ZM381.497 833L0.763672 323.944L381.497 833ZM346.885 833L0.763672 370.222L346.885 833ZM312.272 833L0.763672 416.5L312.272 833ZM277.66 833L0.763672 462.778L277.66 833ZM243.048 833L0.763672 509.056L243.048 833ZM208.436 833L0.763672 555.333L208.436 833ZM173.824 833L0.763672 601.611L173.824 833ZM139.212 833L0.763672 647.889L139.212 833ZM104.6 833L0.763672 694.167L104.6 833ZM69.9878 833L0.763672 740.444L69.9878 833Z" stroke="white" stroke-opacity="0.06" stroke-width="0.25" stroke-linecap="round" stroke-linejoin="round"/>
</svg>
