<svg width="35" height="35" viewBox="0 0 35 35" fill="none" xmlns="http://www.w3.org/2000/svg">
<path d="M17.5 35C15.1302 35 12.863 34.5386 10.6982 33.6157C8.53353 32.6929 6.67074 31.451 5.10986 29.8901C3.54899 28.3293 2.30713 26.4665 1.38428 24.3018C0.461426 22.137 0 19.8698 0 17.5C0 15.1302 0.461426 12.863 1.38428 10.6982C2.30713 8.53353 3.54899 6.67074 5.10986 5.10986C6.67074 3.54899 8.53353 2.30713 10.6982 1.38428C12.863 0.461426 15.1302 0 17.5 0C19.8698 0 22.137 0.461426 24.3018 1.38428C26.4665 2.30713 28.3293 3.54899 29.8901 5.10986C31.451 6.67074 32.6929 8.53353 33.6157 10.6982C34.5386 12.863 35 15.1302 35 17.5C35 19.8698 34.5386 22.137 33.6157 24.3018C32.6929 26.4665 31.451 28.3293 29.8901 29.8901C28.3293 31.451 26.4665 32.6929 24.3018 33.6157C22.137 34.5386 19.8698 35 17.5 35ZM26.25 10.9375C26.25 10.3451 26.0392 9.83236 25.6177 9.39941C25.1961 8.96647 24.6777 8.75 24.0625 8.75H10.9375C10.3451 8.75 9.83236 8.96647 9.39941 9.39941C8.96647 9.83236 8.75 10.3451 8.75 10.9375V13.125H12.6465C13.9681 11.6667 15.5859 10.9375 17.5 10.9375C19.4141 10.9375 21.0319 11.6667 22.3535 13.125H26.25V10.9375ZM13.125 17.5C13.125 18.7077 13.5522 19.7388 14.4067 20.5933C15.2612 21.4478 16.2923 21.875 17.5 21.875C18.7077 21.875 19.7388 21.4478 20.5933 20.5933C21.4478 19.7388 21.875 18.7077 21.875 17.5C21.875 16.2923 21.4478 15.2612 20.5933 14.4067C19.7388 13.5522 18.7077 13.125 17.5 13.125C16.2923 13.125 15.2612 13.5522 14.4067 14.4067C13.5522 15.2612 13.125 16.2923 13.125 17.5ZM26.25 15.3125H23.6523C23.9258 16.0645 24.0625 16.7936 24.0625 17.5C24.0625 19.3229 23.4245 20.8724 22.1484 22.1484C20.8724 23.4245 19.3229 24.0625 17.5 24.0625C15.6771 24.0625 14.1276 23.4245 12.8516 22.1484C11.5755 20.8724 10.9375 19.3229 10.9375 17.5C10.9375 16.7936 11.0742 16.0645 11.3477 15.3125H8.75V24.0625C8.75 24.6777 8.96077 25.1961 9.38232 25.6177C9.80387 26.0392 10.3223 26.25 10.9375 26.25H24.0625C24.6777 26.25 25.1961 26.0392 25.6177 25.6177C26.0392 25.1961 26.25 24.6777 26.25 24.0625V15.3125Z" fill="#EAEAEA"/>
</svg>
