<svg width="20" height="18" viewBox="0 0 20 18" fill="none" xmlns="http://www.w3.org/2000/svg">
<g clip-path="url(#clip0_1_648)">
<path d="M9.63155 0C5.89737 0 2.85938 2.82216 2.85938 6.29105C2.85938 7.46307 3.20886 8.60685 3.87027 9.59916L9.24606 17.6467C9.34903 17.8009 9.53045 17.8945 9.72557 17.8945C9.72707 17.8945 9.72854 17.8945 9.73004 17.8945C9.92685 17.8931 10.1086 17.7965 10.2097 17.6397L15.4485 9.51416C16.0734 8.54282 16.4037 7.42829 16.4037 6.29105C16.4037 2.82216 13.3657 0 9.63155 0ZM14.4799 8.97585L9.71703 16.3632L4.82959 9.04673C4.27905 8.22079 3.98055 7.26791 3.98055 6.29105C3.98055 3.40031 6.51973 1.04152 9.63155 1.04152C12.7434 1.04152 15.2788 3.40031 15.2788 6.29105C15.2788 7.23893 15 8.16746 14.4799 8.97585Z" fill="#FFAD00"/>
<path d="M9.6312 3.14551C7.76412 3.14551 6.24512 4.55843 6.24512 6.29513C6.24512 8.02074 7.7394 9.44476 9.6312 9.44476C11.5463 9.44476 13.0173 8.00177 13.0173 6.29513C13.0173 4.55843 11.4983 3.14551 9.6312 3.14551ZM9.6312 8.40188C8.37997 8.40188 7.36629 7.45584 7.36629 6.29513C7.36629 5.13733 8.38648 4.18838 9.6312 4.18838C10.8759 4.18838 11.8924 5.13733 11.8924 6.29513C11.8924 7.4389 10.9023 8.40188 9.6312 8.40188Z" fill="#FFAD00"/>
</g>
<defs>
<clipPath id="clip0_1_648">
<rect width="19.2631" height="17.8945" fill="white"/>
</clipPath>
</defs>
</svg>
