<svg width="17" height="13" viewBox="0 0 17 13" fill="none" xmlns="http://www.w3.org/2000/svg">
<path d="M14.761 0.957031H1.34192C0.601815 0.957031 0 1.54204 0 2.26148V11.3926C0 12.112 0.601815 12.697 1.34192 12.697H14.761C15.5011 12.697 16.1029 12.112 16.1029 11.3926V2.26148C16.1029 1.54204 15.5011 0.957031 14.761 0.957031ZM1.34192 1.60924H14.761C14.8105 1.60924 14.854 1.62676 14.9004 1.63667C13.7386 2.67024 9.8864 6.096 8.53831 7.27669C8.43283 7.36905 8.2628 7.47924 8.05148 7.47924C7.84017 7.47924 7.67014 7.36905 7.56431 7.27639C6.21635 6.09588 2.36389 2.66994 1.20231 1.63673C1.24879 1.62682 1.29245 1.60924 1.34192 1.60924ZM0.670944 11.3926V2.26148C0.670944 2.19759 0.690758 2.13962 0.708496 2.08123C1.59768 2.87233 4.28561 5.26264 6.02849 6.8033C4.29127 8.25389 1.60265 10.7318 0.706389 11.5626C0.690569 11.5071 0.670944 11.4529 0.670944 11.3926ZM14.761 12.0448H1.34192C1.28833 12.0448 1.24068 12.0267 1.19064 12.015C2.11678 11.1568 4.82251 8.66467 6.52919 7.24539C6.75168 7.44157 6.95491 7.62045 7.11513 7.76078C7.39164 8.00347 7.7153 8.13148 8.05145 8.13148C8.3876 8.13148 8.71126 8.00344 8.98743 7.76109C9.14771 7.6207 9.3511 7.44166 9.57371 7.24539C11.2805 8.66452 13.9858 11.1565 14.9123 12.015C14.8622 12.0267 14.8146 12.0448 14.761 12.0448ZM15.432 11.3926C15.432 11.4528 15.4123 11.5071 15.3965 11.5626C14.4999 10.7313 11.8116 8.25374 10.0744 6.80333C11.8174 5.26267 14.5049 2.87258 15.3944 2.08117C15.4121 2.13956 15.432 2.19756 15.432 2.26145V11.3926Z" fill="#FFAD00"/>
</svg>
