<svg aria-hidden="true" style="position: absolute; width: 0; height: 0; overflow: hidden;" version="1.1" xmlns="http://www.w3.org/2000/svg" xmlns:xlink="http://www.w3.org/1999/xlink">
<defs>

<symbol id="play" viewBox="0 0 32 32">
<path style="fill: var(--color1)" d="M32 16c0 8.837-7.163 16-16 16s-16-7.163-16-16c0-8.837 7.163-16 16-16s16 7.163 16 16z"></path>
<path style="fill: var(--color2)" d="M28 16c0 6.627-5.373 12-12 12s-12-5.373-12-12c0-6.627 5.373-12 12-12s12 5.373 12 12z"></path>
<path style="fill: var(--color3)" d="M20.572 15.664l-6.429 3.711v-7.423l6.429 3.712z"></path>
</symbol>

<symbol id="icon-numbered-list" viewBox="0 0 113 99">
<path d="M1 97.6324L39.1881 52.2329"/>
<path d="M111.539 98.2155L112 1"/>
<path d="M6.28516 97.6785L42.6547 49.7935"/>
<path d="M11.5714 97.7241L46.1225 47.3535"/>
<path d="M16.8574 97.7702L49.5901 44.9141"/>
<path d="M22.1426 97.8161L53.0567 42.4744"/>
<path d="M27.4287 97.8619L56.5244 40.0347"/>
<path d="M32.7139 97.9075L59.9911 37.5947"/>
<path d="M38 97.9536L63.4587 35.1553"/>
<path d="M43.2861 97.9995L66.9264 32.7156"/>
<path d="M48.5714 98.0454L70.3932 30.2759"/>
<path d="M53.8572 98.0915L73.8605 27.8364"/>
<path d="M59.1428 98.1371L77.3276 25.3965"/>
<path d="M64.4286 98.1832L80.7949 22.957"/>
<path d="M69.7139 98.2291L84.2617 20.5173"/>
<path d="M75 98.2749L87.7294 18.0776"/>
<path d="M80.2861 98.321L91.197 15.6382"/>
<path d="M85.5713 98.3666L94.6637 13.1982"/>
<path d="M90.8574 98.4125L98.1313 10.7585"/>
<path d="M96.1426 98.4584L101.598 8.31885"/>
<path d="M101.429 98.5045L105.066 5.87939"/>
<path d="M106.715 98.5503L108.533 3.4397"/>
</symbol>

<symbol id="advantages-bottom" viewBox="0 0 1400 563">
<path d="M1681.03 142.324L929.866 324.718" />
<path d="M1547.48 189.617L844.773 332.526" />
<path d="M1413.92 236.908L759.681 340.334" />
<path d="M1280.36 284.2L674.589 348.142" />
<path d="M1146.81 331.491L589.497 355.95" />
<path d="M1013.25 378.783L504.404 363.758" />
<path d="M881.29 396.513L420.908 342.004" />
<path d="M750.001 401.826L338.084 307.833" />
<path d="M618.711 407.139L255.258 273.664" />
<path d="M487.421 412.453L172.433 239.493" />
<path d="M361.131 419.766L94.6075 207.323" />
<path d="M229.841 425.079L11.7821 173.153" />
<path d="M98.5508 430.393L-71.0434 138.982" />
</symbol>

<!-- id="areas-work-home" -->

<symbol id="areas-work-home" viewBox="-1 0 211 225">
<mask id="path-1-inside-1_75_3" fill="white">
<path d="M110.191 2.36064C109.445 1.61235 108.557 1.01867 107.581 0.613588C106.604 0.20851 105.557 0 104.5 0C103.443 0 102.396 0.20851 101.419 0.613588C100.443 1.01867 99.5555 1.61235 98.8088 2.36064L2.34724 98.7831C1.60125 99.5306 1.00997 100.418 0.607212 101.394C0.204458 102.37 -0.00187376 103.416 1.28213e-05 104.472V216.965C1.28213e-05 219.096 0.846919 221.14 2.35442 222.647C3.86193 224.153 5.90654 225 8.03847 225H80.3846C82.5166 225 84.5612 224.153 86.0687 222.647C87.5762 221.14 88.4231 219.096 88.4231 216.965V152.683H120.577V216.965C120.577 219.096 121.424 221.14 122.931 222.647C124.439 224.153 126.483 225 128.615 225H200.962C203.093 225 205.138 224.153 206.646 222.647C208.153 221.14 209 219.096 209 216.965V104.472C209.002 103.416 208.796 102.37 208.393 101.394C207.99 100.418 207.399 99.5306 206.653 98.7831L184.885 77.0398V24.12C184.885 21.9889 184.038 19.9451 182.53 18.4382C181.023 16.9313 178.978 16.0848 176.846 16.0848H160.769C158.637 16.0848 156.593 16.9313 155.085 18.4382C153.578 19.9451 152.731 21.9889 152.731 24.12V44.899L110.191 2.36064ZM16.0769 208.93V107.799L104.5 19.4113L192.923 107.799V208.93H136.654V144.648C136.654 142.517 135.807 140.473 134.299 138.966C132.792 137.459 130.747 136.613 128.615 136.613H80.3846C78.2527 136.613 76.2081 137.459 74.7006 138.966C73.1931 140.473 72.3462 142.517 72.3462 144.648V208.93H16.0769Z"/>
</mask>
<path d="M110.191 2.36064C109.445 1.61235 108.557 1.01867 107.581 0.613588C106.604 0.20851 105.557 0 104.5 0C103.443 0 102.396 0.20851 101.419 0.613588C100.443 1.01867 99.5555 1.61235 98.8088 2.36064L2.34724 98.7831C1.60125 99.5306 1.00997 100.418 0.607212 101.394C0.204458 102.37 -0.00187376 103.416 1.28213e-05 104.472V216.965C1.28213e-05 219.096 0.846919 221.14 2.35442 222.647C3.86193 224.153 5.90654 225 8.03847 225H80.3846C82.5166 225 84.5612 224.153 86.0687 222.647C87.5762 221.14 88.4231 219.096 88.4231 216.965V152.683H120.577V216.965C120.577 219.096 121.424 221.14 122.931 222.647C124.439 224.153 126.483 225 128.615 225H200.962C203.093 225 205.138 224.153 206.646 222.647C208.153 221.14 209 219.096 209 216.965V104.472C209.002 103.416 208.796 102.37 208.393 101.394C207.99 100.418 207.399 99.5306 206.653 98.7831L184.885 77.0398V24.12C184.885 21.9889 184.038 19.9451 182.53 18.4382C181.023 16.9313 178.978 16.0848 176.846 16.0848H160.769C158.637 16.0848 156.593 16.9313 155.085 18.4382C153.578 19.9451 152.731 21.9889 152.731 24.12V44.899L110.191 2.36064ZM16.0769 208.93V107.799L104.5 19.4113L192.923 107.799V208.93H136.654V144.648C136.654 142.517 135.807 140.473 134.299 138.966C132.792 137.459 130.747 136.613 128.615 136.613H80.3846C78.2527 136.613 76.2081 137.459 74.7006 138.966C73.1931 140.473 72.3462 142.517 72.3462 144.648V208.93H16.0769Z" 
 mask="url(#path-1-inside-1_75_3)"/>
</symbol>



<symbol id="areas-work-commerce" viewBox="0 0 211 225">
<path d="M155.437 196.873V196.123H154.687H140.625H139.875V196.873V217.967C139.875 219.633 139.213 221.23 138.035 222.408C136.857 223.586 135.259 224.248 133.594 224.248H7.03124C5.36535 224.248 3.76769 223.586 2.58973 222.408C1.41177 221.23 0.75 219.633 0.75 217.967V140.623C0.751064 139.306 1.16648 138.022 1.93747 136.953C2.70851 135.885 3.79612 135.085 5.04637 134.669L5.04654 134.669L84.612 108.147L85.1248 107.976V107.436V63.2795C85.1249 62.114 85.4492 60.9714 86.0616 59.9797C86.6739 58.988 87.5501 58.1862 88.5921 57.6641L201.091 1.41448L201.092 1.41433C202.05 0.934521 203.116 0.708024 204.187 0.7564C205.257 0.804777 206.298 1.12642 207.21 1.69071L207.21 1.6909C208.12 2.25363 208.871 3.03942 209.392 3.97379C209.913 4.90816 210.187 5.96012 210.187 7.02995V217.967C210.187 219.633 209.525 221.23 208.347 222.408C207.169 223.586 205.572 224.248 203.906 224.248H161.718C160.053 224.248 158.455 223.586 157.277 222.408C156.099 221.23 155.437 219.633 155.437 217.967V196.873ZM85.1248 122.258V121.217L84.1378 121.546L13.8254 144.974L13.3125 145.145V145.686V210.935V211.685H14.0625H84.3748H85.1248V210.935V122.258ZM97.6873 210.935V211.685H98.4373H126.562H127.312V210.935V189.842C127.312 188.176 127.974 186.578 129.152 185.4C130.33 184.222 131.928 183.561 133.594 183.561H161.718C163.384 183.561 164.982 184.222 166.16 185.4C167.338 186.578 168 188.176 168 189.842V210.935V211.685H168.75H196.875H197.625V210.935V18.4061V17.1926L196.539 17.7353L98.1019 66.954L97.6873 67.1613V67.6248V210.935Z" 
/>
<path d="M28.875 155.436H41.4375V167.998H28.875V155.436ZM57 155.436H69.5624V167.998H57V155.436ZM28.875 183.561H41.4375V196.123H28.875V183.561ZM57 183.561H69.5624V196.123H57V183.561ZM113.25 127.311H125.812V139.873H113.25V127.311ZM141.375 127.311H153.937V139.873H141.375V127.311ZM113.25 155.436H125.812V167.998H113.25V155.436ZM141.375 155.436H153.937V167.998H141.375V155.436ZM169.5 127.311H182.062V139.873H169.5V127.311ZM169.5 155.436H182.062V167.998H169.5V155.436ZM113.25 99.1857H125.812V111.748H113.25V99.1857ZM141.375 99.1857H153.937V111.748H141.375V99.1857ZM169.5 99.1857H182.062V111.748H169.5V99.1857ZM113.25 71.0607H125.812V83.6232H113.25V71.0607ZM141.375 71.0607H153.937V83.6232H141.375V71.0607ZM169.5 71.0607H182.062V83.6232H169.5V71.0607ZM169.5 42.9358H182.062V55.4983H169.5V42.9358Z" 
/>
</symbol>



<symbol id="slider-icon-prev" viewBox="0 0 19 32">
<path d="M0.395 17.015l16.446 14.593c0.54 0.523 1.415 0.523 1.955 0s0.54-1.371-0-1.894l-15.454-13.714 15.453-13.714c0.54-0.523 0.54-1.371 0-1.894s-1.415-0.523-1.955 0l-16.446 14.593c-0.288 0.279-0.411 0.648-0.392 1.014-0.018 0.367 0.105 0.736 0.393 1.016z"></path>
</symbol>

<symbol id="slider-icon-next" viewBox="0 0 19 32">
<path d="M17.76 14.985l-15.532-14.593c-0.51-0.523-1.336-0.523-1.846 0s-0.51 1.371 0 1.894l14.596 13.714-14.594 13.714c-0.51 0.523-0.51 1.371 0 1.894s1.336 0.523 1.846 0l15.532-14.593c0.272-0.279 0.388-0.648 0.37-1.014 0.017-0.367-0.1-0.736-0.371-1.016z"></path>
</symbol>


<symbol id="icon+" viewBox="0 0 32 32">
<path d="M14.398 32.002l0.011-14.402-14.402 0.011v-3.213l14.402 0.011-0.011-14.402h3.213l-0.011 14.402h14.391v3.19h-14.391v14.391l-3.202 0.011z"></path>
</symbol>

<symbol id="icon-x" viewBox="0 0 32 32">
<path d="M28.28 31.12l-12.72-12.74-12.72 12.74-2.84-2.84 12.74-12.72-12.74-12.72 2.84-2.84 12.72 12.74 12.72-12.72 2.82 2.82-12.72 12.72 12.72 12.72-2.82 2.84z"></path>
</symbol>

</defs>
</svg>

