<svg aria-hidden="true" style="position: absolute; width: 0; height: 0; overflow: hidden;" version="1.1" xmlns="http://www.w3.org/2000/svg" xmlns:xlink="http://www.w3.org/1999/xlink">
<defs>

<symbol id="play" viewBox="0 0 32 32">
<path style="fill: var(--color1)" d="M32 16c0 8.837-7.163 16-16 16s-16-7.163-16-16c0-8.837 7.163-16 16-16s16 7.163 16 16z"></path>
<path style="fill: var(--color2)" d="M28 16c0 6.627-5.373 12-12 12s-12-5.373-12-12c0-6.627 5.373-12 12-12s12 5.373 12 12z"></path>
<path style="fill: var(--color3)" d="M20.572 15.664l-6.429 3.711v-7.423l6.429 3.712z"></path>
</symbol>

<symbol id="icon-advantages" viewBox="0 0 113 99">
<path d="M1 97.6324L39.1881 52.2329"/>
<path d="M111.539 98.2155L112 1"/>
<path d="M6.28516 97.6785L42.6547 49.7935"/>
<path d="M11.5714 97.7241L46.1225 47.3535"/>
<path d="M16.8574 97.7702L49.5901 44.9141"/>
<path d="M22.1426 97.8161L53.0567 42.4744"/>
<path d="M27.4287 97.8619L56.5244 40.0347"/>
<path d="M32.7139 97.9075L59.9911 37.5947"/>
<path d="M38 97.9536L63.4587 35.1553"/>
<path d="M43.2861 97.9995L66.9264 32.7156"/>
<path d="M48.5714 98.0454L70.3932 30.2759"/>
<path d="M53.8572 98.0915L73.8605 27.8364"/>
<path d="M59.1428 98.1371L77.3276 25.3965"/>
<path d="M64.4286 98.1832L80.7949 22.957"/>
<path d="M69.7139 98.2291L84.2617 20.5173"/>
<path d="M75 98.2749L87.7294 18.0776"/>
<path d="M80.2861 98.321L91.197 15.6382"/>
<path d="M85.5713 98.3666L94.6637 13.1982"/>
<path d="M90.8574 98.4125L98.1313 10.7585"/>
<path d="M96.1426 98.4584L101.598 8.31885"/>
<path d="M101.429 98.5045L105.066 5.87939"/>
<path d="M106.715 98.5503L108.533 3.4397"/>
</symbol>

<symbol id="advantages-bottom" viewBox="0 0 1400 563">
<path d="M1681.03 142.324L929.866 324.718" />
<path d="M1547.48 189.617L844.773 332.526" />
<path d="M1413.92 236.908L759.681 340.334" />
<path d="M1280.36 284.2L674.589 348.142" />
<path d="M1146.81 331.491L589.497 355.95" />
<path d="M1013.25 378.783L504.404 363.758" />
<path d="M881.29 396.513L420.908 342.004" />
<path d="M750.001 401.826L338.084 307.833" />
<path d="M618.711 407.139L255.258 273.664" />
<path d="M487.421 412.453L172.433 239.493" />
<path d="M361.131 419.766L94.6075 207.323" />
<path d="M229.841 425.079L11.7821 173.153" />
<path d="M98.5508 430.393L-71.0434 138.982" />
</symbol>

<symbol id="areas-work-home" viewBox="0 0 209 225">
<path d="M109.661 2.89098L109.66 2.89041C108.983 2.21195 108.179 1.67365 107.294 1.30636C106.408 0.939064 105.459 0.75 104.5 0.75C103.541 0.75 102.592 0.939065 101.706 1.30636C100.821 1.67365 100.017 2.21195 99.3397 2.89041L99.339 2.89108L2.87814 99.3128L109.661 2.89098ZM109.661 2.89098L152.2 45.4293L153.481 46.7096V44.899V24.12C153.481 22.1879 154.249 20.3349 155.615 18.9687C156.982 17.6024 158.836 16.8348 160.769 16.8348H176.846C178.779 16.8348 180.633 17.6024 182 18.9687C183.367 20.3349 184.135 22.1879 184.135 24.12V77.0398V77.3507L184.355 77.5704L206.122 99.3128C206.798 99.9906 207.334 100.795 207.699 101.68C208.065 102.565 208.252 103.513 208.25 104.471V104.472V216.965C208.25 218.897 207.482 220.75 206.115 222.116C204.749 223.482 202.895 224.25 200.962 224.25H128.615C126.682 224.25 124.828 223.482 123.462 222.116C122.095 220.75 121.327 218.897 121.327 216.965V152.683V151.933H120.577H88.4231H87.6731V152.683V216.965C87.6731 218.897 86.9053 220.75 85.5385 222.116C84.1716 223.482 82.3177 224.25 80.3846 224.25H8.03847C6.10535 224.25 4.25147 223.482 2.88465 222.116C1.51783 220.75 0.750013 218.897 0.750013 216.965L0.750014 104.472L0.750012 104.471M109.661 2.89098L0.750012 104.471M0.750012 104.471C0.748301 103.513 0.935365 102.565 1.30052 101.68C1.66555 100.795 2.2014 99.9912 2.87747 99.3135L0.750012 104.471ZM15.3269 208.93V209.68H16.0769H72.3462H73.0962V208.93V144.648C73.0962 142.716 73.864 140.863 75.2308 139.497C76.5976 138.13 78.4515 137.363 80.3846 137.363H128.615C130.549 137.363 132.402 138.13 133.769 139.497C135.136 140.863 135.904 142.716 135.904 144.648V208.93V209.68H136.654H192.923H193.673V208.93V107.799V107.488L193.453 107.268L105.03 18.8809L104.5 18.3509L103.97 18.8809L15.5467 107.268L15.3269 107.488V107.799V208.93Z"/>
</symbol>

<symbol id="areas-work-commerce" viewBox="0 0 211 225">
<path d="M155.437 196.873V196.123H154.687H140.625H139.875V196.873V217.967C139.875 219.633 139.213 221.23 138.035 222.408C136.857 223.586 135.259 224.248 133.594 224.248H7.03124C5.36535 224.248 3.76769 223.586 2.58973 222.408C1.41177 221.23 0.75 219.633 0.75 217.967V140.623C0.751064 139.306 1.16648 138.022 1.93747 136.953C2.70851 135.885 3.79612 135.085 5.04637 134.669L5.04654 134.669L84.612 108.147L85.1248 107.976V107.436V63.2795C85.1249 62.114 85.4492 60.9714 86.0616 59.9797C86.6739 58.988 87.5501 58.1862 88.5921 57.6641L201.091 1.41448L201.092 1.41433C202.05 0.934521 203.116 0.708024 204.187 0.7564C205.257 0.804777 206.298 1.12642 207.21 1.69071L207.21 1.6909C208.12 2.25363 208.871 3.03942 209.392 3.97379C209.913 4.90816 210.187 5.96012 210.187 7.02995V217.967C210.187 219.633 209.525 221.23 208.347 222.408C207.169 223.586 205.572 224.248 203.906 224.248H161.718C160.053 224.248 158.455 223.586 157.277 222.408C156.099 221.23 155.437 219.633 155.437 217.967V196.873ZM85.1248 122.258V121.217L84.1378 121.546L13.8254 144.974L13.3125 145.145V145.686V210.935V211.685H14.0625H84.3748H85.1248V210.935V122.258ZM97.6873 210.935V211.685H98.4373H126.562H127.312V210.935V189.842C127.312 188.176 127.974 186.578 129.152 185.4C130.33 184.222 131.928 183.561 133.594 183.561H161.718C163.384 183.561 164.982 184.222 166.16 185.4C167.338 186.578 168 188.176 168 189.842V210.935V211.685H168.75H196.875H197.625V210.935V18.4061V17.1926L196.539 17.7353L98.1019 66.954L97.6873 67.1613V67.6248V210.935Z" stroke="white" stroke-width="1.5"/>
<path d="M28.875 155.436H41.4375V167.998H28.875V155.436ZM57 155.436H69.5624V167.998H57V155.436ZM28.875 183.561H41.4375V196.123H28.875V183.561ZM57 183.561H69.5624V196.123H57V183.561ZM113.25 127.311H125.812V139.873H113.25V127.311ZM141.375 127.311H153.937V139.873H141.375V127.311ZM113.25 155.436H125.812V167.998H113.25V155.436ZM141.375 155.436H153.937V167.998H141.375V155.436ZM169.5 127.311H182.062V139.873H169.5V127.311ZM169.5 155.436H182.062V167.998H169.5V155.436ZM113.25 99.1857H125.812V111.748H113.25V99.1857ZM141.375 99.1857H153.937V111.748H141.375V99.1857ZM169.5 99.1857H182.062V111.748H169.5V99.1857ZM113.25 71.0607H125.812V83.6232H113.25V71.0607ZM141.375 71.0607H153.937V83.6232H141.375V71.0607ZM169.5 71.0607H182.062V83.6232H169.5V71.0607ZM169.5 42.9358H182.062V55.4983H169.5V42.9358Z" stroke="white" stroke-width="1.5"/>
</symbol>

</defs>
</svg>

