<svg aria-hidden="true" style="position: absolute; width: 0; height: 0; overflow: hidden;" version="1.1" xmlns="http://www.w3.org/2000/svg" xmlns:xlink="http://www.w3.org/1999/xlink">
<defs>

<symbol id="play" viewBox="0 0 32 32">
<path style="fill: var(--color1)" d="M32 16c0 8.837-7.163 16-16 16s-16-7.163-16-16c0-8.837 7.163-16 16-16s16 7.163 16 16z"></path>
<path style="fill: var(--color2)" d="M28 16c0 6.627-5.373 12-12 12s-12-5.373-12-12c0-6.627 5.373-12 12-12s12 5.373 12 12z"></path>
<path style="fill: var(--color3)" d="M20.572 15.664l-6.429 3.711v-7.423l6.429 3.712z"></path>
</symbol>

<symbol id="icon-advantages" viewBox="0 0 113 99">
<path d="M1 97.6324L39.1881 52.2329"/>
<path d="M111.539 98.2155L112 1"/>
<path d="M6.28516 97.6785L42.6547 49.7935"/>
<path d="M11.5714 97.7241L46.1225 47.3535"/>
<path d="M16.8574 97.7702L49.5901 44.9141"/>
<path d="M22.1426 97.8161L53.0567 42.4744"/>
<path d="M27.4287 97.8619L56.5244 40.0347"/>
<path d="M32.7139 97.9075L59.9911 37.5947"/>
<path d="M38 97.9536L63.4587 35.1553"/>
<path d="M43.2861 97.9995L66.9264 32.7156"/>
<path d="M48.5714 98.0454L70.3932 30.2759"/>
<path d="M53.8572 98.0915L73.8605 27.8364"/>
<path d="M59.1428 98.1371L77.3276 25.3965"/>
<path d="M64.4286 98.1832L80.7949 22.957"/>
<path d="M69.7139 98.2291L84.2617 20.5173"/>
<path d="M75 98.2749L87.7294 18.0776"/>
<path d="M80.2861 98.321L91.197 15.6382"/>
<path d="M85.5713 98.3666L94.6637 13.1982"/>
<path d="M90.8574 98.4125L98.1313 10.7585"/>
<path d="M96.1426 98.4584L101.598 8.31885"/>
<path d="M101.429 98.5045L105.066 5.87939"/>
<path d="M106.715 98.5503L108.533 3.4397"/>
</symbol>

<symbol id="advantages-bottom" viewBox="0 0 1400 563">
<path d="M1681.03 142.324L929.866 324.718" />
<path d="M1547.48 189.617L844.773 332.526" />
<path d="M1413.92 236.908L759.681 340.334" />
<path d="M1280.36 284.2L674.589 348.142" />
<path d="M1146.81 331.491L589.497 355.95" />
<path d="M1013.25 378.783L504.404 363.758" />
<path d="M881.29 396.513L420.908 342.004" />
<path d="M750.001 401.826L338.084 307.833" />
<path d="M618.711 407.139L255.258 273.664" />
<path d="M487.421 412.453L172.433 239.493" />
<path d="M361.131 419.766L94.6075 207.323" />
<path d="M229.841 425.079L11.7821 173.153" />
<path d="M98.5508 430.393L-71.0434 138.982" />
</symbol>

</defs>
</svg>

